<mxfile host="app.diagrams.net" modified="2022-01-29T08:27:23.307Z" agent="5.0 (Windows NT 10.0; Win64; x64) AppleWebKit/537.36 (KHTML, like Gecko) Chrome/97.0.4692.99 Safari/537.36" etag="rfFrK1NEdBM0Q5yRzP17" version="16.4.7" type="github">
  <diagram name="Page-1" id="2c0d36ab-eaac-3732-788b-9136903baeff">
    <mxGraphModel dx="1037" dy="591" grid="1" gridSize="10" guides="1" tooltips="1" connect="1" arrows="1" fold="1" page="1" pageScale="1.5" pageWidth="1169" pageHeight="827" background="none" math="0" shadow="0">
      <root>
        <mxCell id="0" />
        <mxCell id="1" parent="0" />
        <mxCell id="NS-wZ5UPYBN-ugwvkPEJ-27" style="edgeStyle=orthogonalEdgeStyle;rounded=0;orthogonalLoop=1;jettySize=auto;html=1;entryX=0;entryY=0.75;entryDx=0;entryDy=0;" edge="1" parent="1" source="NS-wZ5UPYBN-ugwvkPEJ-25" target="y_zakcnJnjhkNf_73qmC-182">
          <mxGeometry relative="1" as="geometry" />
        </mxCell>
        <mxCell id="NS-wZ5UPYBN-ugwvkPEJ-25" value="" style="rounded=0;whiteSpace=wrap;html=1;strokeColor=#d6b656;fillColor=#80FF00;gradientColor=#FF0303;" vertex="1" parent="1">
          <mxGeometry x="150" y="850" width="160" height="360" as="geometry" />
        </mxCell>
        <mxCell id="y_zakcnJnjhkNf_73qmC-138" value="&lt;font style=&quot;font-size: 10px&quot;&gt;Technical team&lt;/font&gt;" style="edgeStyle=orthogonalEdgeStyle;rounded=0;orthogonalLoop=1;jettySize=auto;html=1;fontSize=8;entryX=0.5;entryY=0;entryDx=0;entryDy=0;" parent="1" source="y_zakcnJnjhkNf_73qmC-123" target="y_zakcnJnjhkNf_73qmC-139" edge="1">
          <mxGeometry x="0.8161" relative="1" as="geometry">
            <mxPoint x="830" y="510" as="targetPoint" />
            <mxPoint as="offset" />
          </mxGeometry>
        </mxCell>
        <mxCell id="y_zakcnJnjhkNf_73qmC-147" value="&lt;span style=&quot;font-size: 10px&quot;&gt;Media team&lt;/span&gt;" style="edgeStyle=orthogonalEdgeStyle;rounded=0;orthogonalLoop=1;jettySize=auto;html=1;entryX=0.5;entryY=0;entryDx=0;entryDy=0;fontSize=8;" parent="1" source="y_zakcnJnjhkNf_73qmC-123" target="y_zakcnJnjhkNf_73qmC-144" edge="1">
          <mxGeometry x="0.8" relative="1" as="geometry">
            <mxPoint as="offset" />
          </mxGeometry>
        </mxCell>
        <mxCell id="y_zakcnJnjhkNf_73qmC-123" value="Community Lead &lt;br&gt;&amp;amp; Co-Leads" style="rounded=1;whiteSpace=wrap;html=1;container=1;arcSize=12;verticalAlign=top;" parent="1" vertex="1">
          <mxGeometry x="650" y="40" width="280" height="200" as="geometry">
            <mxRectangle x="650" y="40" width="280" height="40" as="alternateBounds" />
          </mxGeometry>
        </mxCell>
        <mxCell id="y_zakcnJnjhkNf_73qmC-126" value="Duties of the Lead &amp;amp; Co-leads&lt;br&gt;&lt;ul&gt;&lt;li style=&quot;font-size: 8px&quot;&gt;&lt;span&gt;MLSA ambassadors Relations&lt;/span&gt;&lt;/li&gt;&lt;li style=&quot;font-size: 8px&quot;&gt;&lt;span&gt;Community Decision Making&lt;/span&gt;&lt;/li&gt;&lt;li style=&quot;font-size: 8px&quot;&gt;&lt;span&gt;Determine &amp;amp; formulate rules to be followed by the members that would reflect the community Ideology (Diversity, Inclusion, Collaboration, etc)&lt;/span&gt;&lt;/li&gt;&lt;li style=&quot;font-size: 8px&quot;&gt;Ensure Community Ideology&amp;nbsp;is followed&lt;/li&gt;&lt;li style=&quot;font-size: 8px&quot;&gt;Conduct meets for member&#39;s Personal Growth (Personal Branding, Improve CV, awareness, etc)&lt;/li&gt;&lt;li style=&quot;font-size: 8px&quot;&gt;&lt;span&gt;Address Issues in the Community&lt;br&gt;&lt;/span&gt;&lt;br&gt;&lt;br&gt;&lt;/li&gt;&lt;/ul&gt;" style="rounded=0;whiteSpace=wrap;html=1;verticalAlign=top;align=left;" parent="y_zakcnJnjhkNf_73qmC-123" vertex="1">
          <mxGeometry y="51.811764705882354" width="280" height="124.65882352941176" as="geometry" />
        </mxCell>
        <mxCell id="y_zakcnJnjhkNf_73qmC-184" style="edgeStyle=orthogonalEdgeStyle;rounded=0;jumpSize=3;orthogonalLoop=1;jettySize=auto;html=1;entryX=0.5;entryY=0;entryDx=0;entryDy=0;fontFamily=Helvetica;fontSize=12;fontColor=default;strokeWidth=2;" parent="1" source="y_zakcnJnjhkNf_73qmC-139" target="y_zakcnJnjhkNf_73qmC-181" edge="1">
          <mxGeometry relative="1" as="geometry" />
        </mxCell>
        <mxCell id="y_zakcnJnjhkNf_73qmC-139" value="Technical Lead" style="rounded=1;whiteSpace=wrap;html=1;container=1;arcSize=8;verticalAlign=top;" parent="1" vertex="1">
          <mxGeometry x="310" y="440" width="370" height="260" as="geometry">
            <mxRectangle x="310" y="440" width="370" height="30" as="alternateBounds" />
          </mxGeometry>
        </mxCell>
        <mxCell id="y_zakcnJnjhkNf_73qmC-140" value="Duties of the Lead&lt;br&gt;&lt;ul&gt;&lt;li style=&quot;font-size: 8px&quot;&gt;Select Leads for a Technical Domain&lt;/li&gt;&lt;li style=&quot;font-size: 8px&quot;&gt;Plan all Technical Domain Events&lt;/li&gt;&lt;li style=&quot;font-size: 8px&quot;&gt;Provide Guidance to the domain Leads &amp;amp; help with decision making&lt;/li&gt;&lt;/ul&gt;" style="rounded=0;whiteSpace=wrap;html=1;verticalAlign=top;align=left;" parent="y_zakcnJnjhkNf_73qmC-139" vertex="1">
          <mxGeometry y="60.00266666666667" width="370" height="149.604" as="geometry" />
        </mxCell>
        <mxCell id="y_zakcnJnjhkNf_73qmC-174" style="edgeStyle=orthogonalEdgeStyle;rounded=0;orthogonalLoop=1;jettySize=auto;html=1;exitX=0.5;exitY=1;exitDx=0;exitDy=0;entryX=0.5;entryY=0;entryDx=0;entryDy=0;fontSize=8;" parent="1" source="y_zakcnJnjhkNf_73qmC-144" target="y_zakcnJnjhkNf_73qmC-169" edge="1">
          <mxGeometry relative="1" as="geometry" />
        </mxCell>
        <mxCell id="y_zakcnJnjhkNf_73qmC-176" style="edgeStyle=orthogonalEdgeStyle;rounded=0;orthogonalLoop=1;jettySize=auto;html=1;entryX=0.5;entryY=0;entryDx=0;entryDy=0;fontFamily=Helvetica;fontSize=12;fontColor=default;" parent="1" source="y_zakcnJnjhkNf_73qmC-144" target="y_zakcnJnjhkNf_73qmC-151" edge="1">
          <mxGeometry relative="1" as="geometry" />
        </mxCell>
        <mxCell id="y_zakcnJnjhkNf_73qmC-177" style="edgeStyle=orthogonalEdgeStyle;rounded=0;orthogonalLoop=1;jettySize=auto;html=1;entryX=0.5;entryY=0;entryDx=0;entryDy=0;fontFamily=Helvetica;fontSize=12;fontColor=default;" parent="1" source="y_zakcnJnjhkNf_73qmC-144" target="y_zakcnJnjhkNf_73qmC-154" edge="1">
          <mxGeometry relative="1" as="geometry" />
        </mxCell>
        <mxCell id="y_zakcnJnjhkNf_73qmC-144" value="Event Management Team" style="rounded=1;whiteSpace=wrap;html=1;container=1;arcSize=5;verticalAlign=top;" parent="1" vertex="1">
          <mxGeometry x="900" y="440" width="420" height="260" as="geometry">
            <mxRectangle x="900" y="440" width="420" height="30" as="alternateBounds" />
          </mxGeometry>
        </mxCell>
        <mxCell id="y_zakcnJnjhkNf_73qmC-145" value="Duties of the Lead&lt;span style=&quot;color: rgba(0 , 0 , 0 , 0) ; font-family: monospace ; font-size: 0px&quot;&gt;%3CmxGraphModel%3E%3Croot%3E%3CmxCell%20id%3D%220%22%2F%3E%3CmxCell%20id%3D%221%22%20parent%3D%220%22%2F%3E%3CmxCell%20id%3D%222%22%20value%3D%22%22%20style%3D%22edgeStyle%3DorthogonalEdgeStyle%3Brounded%3D0%3BorthogonalLoop%3D1%3BjettySize%3Dauto%3Bhtml%3D1%3BfontSize%3D8%3BentryX%3D0.5%3BentryY%3D0%3BentryDx%3D0%3BentryDy%3D0%3B%22%20edge%3D%221%22%20target%3D%223%22%20parent%3D%221%22%3E%3CmxGeometry%20relative%3D%221%22%20as%3D%22geometry%22%3E%3CmxPoint%20x%3D%22720%22%20y%3D%22320.0000000000001%22%20as%3D%22sourcePoint%22%2F%3E%3CmxPoint%20x%3D%22830%22%20y%3D%22510%22%20as%3D%22targetPoint%22%2F%3E%3C%2FmxGeometry%3E%3C%2FmxCell%3E%3CmxCell%20id%3D%223%22%20value%3D%22Community%20Lead%20%26lt%3Bbr%26gt%3B%26amp%3Bamp%3B%20Co-Leads%22%20style%3D%22rounded%3D1%3BwhiteSpace%3Dwrap%3Bhtml%3D1%3Bcontainer%3D1%3BarcSize%3D12%3BverticalAlign%3Dtop%3B%22%20vertex%3D%221%22%20parent%3D%221%22%3E%3CmxGeometry%20x%3D%22540%22%20y%3D%22520%22%20width%3D%22170%22%20height%3D%22160%22%20as%3D%22geometry%22%3E%3CmxRectangle%20x%3D%22720%22%20y%3D%22240%22%20width%3D%22160%22%20height%3D%2240%22%20as%3D%22alternateBounds%22%2F%3E%3C%2FmxGeometry%3E%3C%2FmxCell%3E%3CmxCell%20id%3D%224%22%20value%3D%22Duties%20of%20the%20Role%26lt%3Bbr%26gt%3B%26lt%3Bul%26gt%3B%26lt%3Bli%20style%3D%26quot%3Bfont-size%3A%208px%26quot%3B%26gt%3B%26lt%3Bspan%26gt%3BPlan%20Future%20Community%20Goals%20to%20achieve%26lt%3B%2Fspan%26gt%3B%26lt%3B%2Fli%26gt%3B%26lt%3Bli%20style%3D%26quot%3Bfont-size%3A%208px%26quot%3B%26gt%3B%26lt%3Bspan%26gt%3BCommunity%20Decision%20Making%26lt%3Bbr%26gt%3B%26lt%3B%2Fspan%26gt%3B%26lt%3B%2Fli%26gt%3B%26lt%3Bli%20style%3D%26quot%3Bfont-size%3A%208px%26quot%3B%26gt%3B%26lt%3Bspan%26gt%3BEnsure%20Community%20Ideology%26amp%3Bnbsp%3Bis%20followed%26lt%3Bbr%26gt%3B%26lt%3B%2Fspan%26gt%3B%26lt%3B%2Fli%26gt%3B%26lt%3Bli%20style%3D%26quot%3Bfont-size%3A%208px%26quot%3B%26gt%3B%26lt%3Bspan%26gt%3BAddress%20Issues%20in%20the%20Community%26lt%3Bbr%26gt%3B%26lt%3B%2Fspan%26gt%3B%26lt%3Bbr%26gt%3B%26lt%3Bbr%26gt%3B%26lt%3B%2Fli%26gt%3B%26lt%3B%2Ful%26gt%3B%22%20style%3D%22rounded%3D0%3BwhiteSpace%3Dwrap%3Bhtml%3D1%3BverticalAlign%3Dtop%3Balign%3Dleft%3B%22%20vertex%3D%221%22%20parent%3D%223%22%3E%3CmxGeometry%20y%3D%2241.45%22%20width%3D%22170%22%20height%3D%2298.55%22%20as%3D%22geometry%22%2F%3E%3C%2FmxCell%3E%3C%2Froot%3E%3C%2FmxGraphModel%3E&lt;/span&gt;&lt;br&gt;&lt;ul&gt;&lt;li style=&quot;font-size: 8px&quot;&gt;Select Event Management Co-Lead &amp;amp; Team Members&lt;/li&gt;&lt;li style=&quot;font-size: 8px&quot;&gt;Select Graphics Design &amp;amp; Content Writing Leads&lt;/li&gt;&lt;li style=&quot;font-size: 8px&quot;&gt;&lt;span&gt;Ensure Events&amp;nbsp;Poster and Content Writing is done on time&lt;br&gt;&lt;/span&gt;&lt;/li&gt;&lt;li style=&quot;font-size: 8px&quot;&gt;&lt;span&gt;Approve Poster and Content before publishing&lt;/span&gt;&lt;/li&gt;&lt;li style=&quot;font-size: 8px&quot;&gt;&lt;span&gt;Forward Poster &amp;amp; Content to Social Media Team&lt;/span&gt;&lt;/li&gt;&lt;li style=&quot;font-size: 8px&quot;&gt;&lt;span&gt;Ensure Posters reaches the correct audience&lt;/span&gt;&lt;/li&gt;&lt;li style=&quot;font-size: 8px&quot;&gt;Event Collaboration with other Communities/Clubs&lt;/li&gt;&lt;li style=&quot;font-size: 8px&quot;&gt;&lt;span&gt;Outreach &amp;amp; Relations&lt;/span&gt;&lt;/li&gt;&lt;/ul&gt;" style="rounded=0;whiteSpace=wrap;html=1;verticalAlign=top;align=left;" parent="y_zakcnJnjhkNf_73qmC-144" vertex="1">
          <mxGeometry y="32.50000000000001" width="420" height="119.16666666666669" as="geometry" />
        </mxCell>
        <mxCell id="y_zakcnJnjhkNf_73qmC-148" value="Duties of the Team&lt;br&gt;&lt;ul&gt;&lt;li style=&quot;font-size: 8px&quot;&gt;&lt;span&gt;Create RSVP emails for the Event&lt;/span&gt;&lt;/li&gt;&lt;li style=&quot;font-size: 8px&quot;&gt;&lt;span&gt;Set Event Reminder in Discord Channel&lt;/span&gt;&lt;/li&gt;&lt;li style=&quot;font-size: 8px&quot;&gt;&lt;span&gt;Host the Event &amp;amp; Announce in Discord Server &amp;amp; WhatsApp Group before beginning of the Event&lt;/span&gt;&lt;/li&gt;&lt;li style=&quot;font-size: 8px&quot;&gt;During Events monitor for technical glitches&lt;/li&gt;&lt;/ul&gt;" style="rounded=0;whiteSpace=wrap;html=1;verticalAlign=top;align=left;horizontal=1;" parent="y_zakcnJnjhkNf_73qmC-144" vertex="1">
          <mxGeometry y="151.66750000000005" width="420" height="94.82000000000002" as="geometry" />
        </mxCell>
        <mxCell id="y_zakcnJnjhkNf_73qmC-151" value="Graphics Design Team" style="rounded=1;whiteSpace=wrap;html=1;container=1;arcSize=7;verticalAlign=top;" parent="1" vertex="1">
          <mxGeometry x="700" y="840" width="240" height="260" as="geometry">
            <mxRectangle x="757" y="680" width="240" height="30" as="alternateBounds" />
          </mxGeometry>
        </mxCell>
        <mxCell id="y_zakcnJnjhkNf_73qmC-152" value="Duties of the Lead&lt;span style=&quot;color: rgba(0 , 0 , 0 , 0) ; font-family: monospace ; font-size: 0px&quot;&gt;%3CmxGraphModel%3E%3Croot%3E%3CmxCell%20id%3D%220%22%2F%3E%3CmxCell%20id%3D%221%22%20parent%3D%220%22%2F%3E%3CmxCell%20id%3D%222%22%20value%3D%22%22%20style%3D%22edgeStyle%3DorthogonalEdgeStyle%3Brounded%3D0%3BorthogonalLoop%3D1%3BjettySize%3Dauto%3Bhtml%3D1%3BfontSize%3D8%3BentryX%3D0.5%3BentryY%3D0%3BentryDx%3D0%3BentryDy%3D0%3B%22%20edge%3D%221%22%20target%3D%223%22%20parent%3D%221%22%3E%3CmxGeometry%20relative%3D%221%22%20as%3D%22geometry%22%3E%3CmxPoint%20x%3D%22720%22%20y%3D%22320.0000000000001%22%20as%3D%22sourcePoint%22%2F%3E%3CmxPoint%20x%3D%22830%22%20y%3D%22510%22%20as%3D%22targetPoint%22%2F%3E%3C%2FmxGeometry%3E%3C%2FmxCell%3E%3CmxCell%20id%3D%223%22%20value%3D%22Community%20Lead%20%26lt%3Bbr%26gt%3B%26amp%3Bamp%3B%20Co-Leads%22%20style%3D%22rounded%3D1%3BwhiteSpace%3Dwrap%3Bhtml%3D1%3Bcontainer%3D1%3BarcSize%3D12%3BverticalAlign%3Dtop%3B%22%20vertex%3D%221%22%20parent%3D%221%22%3E%3CmxGeometry%20x%3D%22540%22%20y%3D%22520%22%20width%3D%22170%22%20height%3D%22160%22%20as%3D%22geometry%22%3E%3CmxRectangle%20x%3D%22720%22%20y%3D%22240%22%20width%3D%22160%22%20height%3D%2240%22%20as%3D%22alternateBounds%22%2F%3E%3C%2FmxGeometry%3E%3C%2FmxCell%3E%3CmxCell%20id%3D%224%22%20value%3D%22Duties%20of%20the%20Role%26lt%3Bbr%26gt%3B%26lt%3Bul%26gt%3B%26lt%3Bli%20style%3D%26quot%3Bfont-size%3A%208px%26quot%3B%26gt%3B%26lt%3Bspan%26gt%3BPlan%20Future%20Community%20Goals%20to%20achieve%26lt%3B%2Fspan%26gt%3B%26lt%3B%2Fli%26gt%3B%26lt%3Bli%20style%3D%26quot%3Bfont-size%3A%208px%26quot%3B%26gt%3B%26lt%3Bspan%26gt%3BCommunity%20Decision%20Making%26lt%3Bbr%26gt%3B%26lt%3B%2Fspan%26gt%3B%26lt%3B%2Fli%26gt%3B%26lt%3Bli%20style%3D%26quot%3Bfont-size%3A%208px%26quot%3B%26gt%3B%26lt%3Bspan%26gt%3BEnsure%20Community%20Ideology%26amp%3Bnbsp%3Bis%20followed%26lt%3Bbr%26gt%3B%26lt%3B%2Fspan%26gt%3B%26lt%3B%2Fli%26gt%3B%26lt%3Bli%20style%3D%26quot%3Bfont-size%3A%208px%26quot%3B%26gt%3B%26lt%3Bspan%26gt%3BAddress%20Issues%20in%20the%20Community%26lt%3Bbr%26gt%3B%26lt%3B%2Fspan%26gt%3B%26lt%3Bbr%26gt%3B%26lt%3Bbr%26gt%3B%26lt%3B%2Fli%26gt%3B%26lt%3B%2Ful%26gt%3B%22%20style%3D%22rounded%3D0%3BwhiteSpace%3Dwrap%3Bhtml%3D1%3BverticalAlign%3Dtop%3Balign%3Dleft%3B%22%20vertex%3D%221%22%20parent%3D%223%22%3E%3CmxGeometry%20y%3D%2241.45%22%20width%3D%22170%22%20height%3D%2298.55%22%20as%3D%22geometry%22%2F%3E%3C%2FmxCell%3E%3C%2Froot%3E%3C%2FmxGraphModel%3E&lt;/span&gt;&lt;br&gt;&lt;ul&gt;&lt;li style=&quot;font-size: 8px&quot;&gt;Select Graphics Design Co-Lead &amp;amp; Team Members&lt;/li&gt;&lt;li style=&quot;font-size: 8px&quot;&gt;Plan &amp;amp; Organize Graphics Design Events in the Community&lt;/li&gt;&lt;li style=&quot;font-size: 8px&quot;&gt;Contact domain team Lead and get the Poster Content to create the poster of the Event&lt;/li&gt;&lt;li style=&quot;font-size: 8px&quot;&gt;Work with the team &amp;amp; provide Guidance&lt;/li&gt;&lt;/ul&gt;" style="rounded=0;whiteSpace=wrap;html=1;verticalAlign=top;align=left;" parent="y_zakcnJnjhkNf_73qmC-151" vertex="1">
          <mxGeometry y="32.5" width="240" height="119.16666666666666" as="geometry" />
        </mxCell>
        <mxCell id="y_zakcnJnjhkNf_73qmC-153" value="Duties of the Lead &amp;amp; the Team&lt;br&gt;&lt;div&gt;&lt;ul&gt;&lt;li style=&quot;font-size: 8px&quot;&gt;After getting content and creating the poster, make&amp;nbsp; sure Poster follows all the Poster design rules&lt;/li&gt;&lt;li style=&quot;font-size: 8px&quot;&gt;Ensure job is finished on time&lt;/li&gt;&lt;li style=&quot;font-size: 8px&quot;&gt;Get&amp;nbsp; the Poster approved by the Event management Lead and domain&amp;nbsp;Team Lead&lt;/li&gt;&lt;/ul&gt;&lt;/div&gt;" style="rounded=0;whiteSpace=wrap;html=1;verticalAlign=top;align=left;horizontal=1;" parent="y_zakcnJnjhkNf_73qmC-151" vertex="1">
          <mxGeometry y="145.17" width="240" height="94.83" as="geometry" />
        </mxCell>
        <mxCell id="y_zakcnJnjhkNf_73qmC-154" value="Content Writing Team" style="rounded=1;whiteSpace=wrap;html=1;container=1;arcSize=7;verticalAlign=top;" parent="1" vertex="1">
          <mxGeometry x="1280" y="840" width="240" height="260" as="geometry">
            <mxRectangle x="1280" y="840" width="240" height="30" as="alternateBounds" />
          </mxGeometry>
        </mxCell>
        <mxCell id="y_zakcnJnjhkNf_73qmC-155" value="Duties of the Lead&lt;span style=&quot;color: rgba(0 , 0 , 0 , 0) ; font-family: monospace ; font-size: 0px&quot;&gt;%3CmxGraphModel%3E%3Croot%3E%3CmxCell%20id%3D%220%22%2F%3E%3CmxCell%20id%3D%221%22%20parent%3D%220%22%2F%3E%3CmxCell%20id%3D%222%22%20value%3D%22%22%20style%3D%22edgeStyle%3DorthogonalEdgeStyle%3Brounded%3D0%3BorthogonalLoop%3D1%3BjettySize%3Dauto%3Bhtml%3D1%3BfontSize%3D8%3BentryX%3D0.5%3BentryY%3D0%3BentryDx%3D0%3BentryDy%3D0%3B%22%20edge%3D%221%22%20target%3D%223%22%20parent%3D%221%22%3E%3CmxGeometry%20relative%3D%221%22%20as%3D%22geometry%22%3E%3CmxPoint%20x%3D%22720%22%20y%3D%22320.0000000000001%22%20as%3D%22sourcePoint%22%2F%3E%3CmxPoint%20x%3D%22830%22%20y%3D%22510%22%20as%3D%22targetPoint%22%2F%3E%3C%2FmxGeometry%3E%3C%2FmxCell%3E%3CmxCell%20id%3D%223%22%20value%3D%22Community%20Lead%20%26lt%3Bbr%26gt%3B%26amp%3Bamp%3B%20Co-Leads%22%20style%3D%22rounded%3D1%3BwhiteSpace%3Dwrap%3Bhtml%3D1%3Bcontainer%3D1%3BarcSize%3D12%3BverticalAlign%3Dtop%3B%22%20vertex%3D%221%22%20parent%3D%221%22%3E%3CmxGeometry%20x%3D%22540%22%20y%3D%22520%22%20width%3D%22170%22%20height%3D%22160%22%20as%3D%22geometry%22%3E%3CmxRectangle%20x%3D%22720%22%20y%3D%22240%22%20width%3D%22160%22%20height%3D%2240%22%20as%3D%22alternateBounds%22%2F%3E%3C%2FmxGeometry%3E%3C%2FmxCell%3E%3CmxCell%20id%3D%224%22%20value%3D%22Duties%20of%20the%20Role%26lt%3Bbr%26gt%3B%26lt%3Bul%26gt%3B%26lt%3Bli%20style%3D%26quot%3Bfont-size%3A%208px%26quot%3B%26gt%3B%26lt%3Bspan%26gt%3BPlan%20Future%20Community%20Goals%20to%20achieve%26lt%3B%2Fspan%26gt%3B%26lt%3B%2Fli%26gt%3B%26lt%3Bli%20style%3D%26quot%3Bfont-size%3A%208px%26quot%3B%26gt%3B%26lt%3Bspan%26gt%3BCommunity%20Decision%20Making%26lt%3Bbr%26gt%3B%26lt%3B%2Fspan%26gt%3B%26lt%3B%2Fli%26gt%3B%26lt%3Bli%20style%3D%26quot%3Bfont-size%3A%208px%26quot%3B%26gt%3B%26lt%3Bspan%26gt%3BEnsure%20Community%20Ideology%26amp%3Bnbsp%3Bis%20followed%26lt%3Bbr%26gt%3B%26lt%3B%2Fspan%26gt%3B%26lt%3B%2Fli%26gt%3B%26lt%3Bli%20style%3D%26quot%3Bfont-size%3A%208px%26quot%3B%26gt%3B%26lt%3Bspan%26gt%3BAddress%20Issues%20in%20the%20Community%26lt%3Bbr%26gt%3B%26lt%3B%2Fspan%26gt%3B%26lt%3Bbr%26gt%3B%26lt%3Bbr%26gt%3B%26lt%3B%2Fli%26gt%3B%26lt%3B%2Ful%26gt%3B%22%20style%3D%22rounded%3D0%3BwhiteSpace%3Dwrap%3Bhtml%3D1%3BverticalAlign%3Dtop%3Balign%3Dleft%3B%22%20vertex%3D%221%22%20parent%3D%223%22%3E%3CmxGeometry%20y%3D%2241.45%22%20width%3D%22170%22%20height%3D%2298.55%22%20as%3D%22geometry%22%2F%3E%3C%2FmxCell%3E%3C%2Froot%3E%3C%2FmxGraphModel%3E&lt;/span&gt;&lt;br&gt;&lt;ul&gt;&lt;li style=&quot;font-size: 8px&quot;&gt;Select Content Writing Co-Lead &amp;amp; Team Members&lt;/li&gt;&lt;li style=&quot;font-size: 8px&quot;&gt;Plan &amp;amp; Organize Content Writing Events in the Community&lt;/li&gt;&lt;li style=&quot;font-size: 8px&quot;&gt;If needed, you may Contact the domain team Leads and get the Content Ideas required to create the Content.&lt;/li&gt;&lt;li style=&quot;font-size: 8px&quot;&gt;Work with the team &amp;amp; provide Guidance&lt;/li&gt;&lt;/ul&gt;" style="rounded=0;whiteSpace=wrap;html=1;verticalAlign=top;align=left;" parent="y_zakcnJnjhkNf_73qmC-154" vertex="1">
          <mxGeometry y="32.5" width="240" height="107.5" as="geometry" />
        </mxCell>
        <mxCell id="y_zakcnJnjhkNf_73qmC-156" value="Duties of the Lead &amp;amp; the Team&lt;br&gt;&lt;div&gt;&lt;ul&gt;&lt;li style=&quot;font-size: 8px&quot;&gt;Work on content ideas, create the Content for new Event announcements &amp;amp;&amp;nbsp; other miscellaneous things&lt;/li&gt;&lt;li style=&quot;font-size: 8px&quot;&gt;Create Google Forms&lt;/li&gt;&lt;li style=&quot;font-size: 8px&quot;&gt;Ensure job is finished on time&lt;/li&gt;&lt;li style=&quot;font-size: 8px&quot;&gt;Get&amp;nbsp; the Content approved by the Event management Lead and domain&amp;nbsp;Team Lead&lt;/li&gt;&lt;/ul&gt;&lt;/div&gt;" style="rounded=0;whiteSpace=wrap;html=1;verticalAlign=top;align=left;horizontal=1;" parent="y_zakcnJnjhkNf_73qmC-154" vertex="1">
          <mxGeometry y="140.00430000000006" width="240.00000000000003" height="94.82000000000004" as="geometry" />
        </mxCell>
        <mxCell id="y_zakcnJnjhkNf_73qmC-169" value="Social Media Team" style="rounded=1;whiteSpace=wrap;html=1;container=1;arcSize=7;verticalAlign=top;" parent="1" vertex="1">
          <mxGeometry x="990" y="840" width="240" height="260" as="geometry">
            <mxRectangle x="1010" y="980" width="240" height="30" as="alternateBounds" />
          </mxGeometry>
        </mxCell>
        <mxCell id="y_zakcnJnjhkNf_73qmC-170" value="Duties of the Lead&lt;span style=&quot;color: rgba(0 , 0 , 0 , 0) ; font-family: monospace ; font-size: 0px&quot;&gt;%3CmxGraphModel%3E%3Croot%3E%3CmxCell%20id%3D%220%22%2F%3E%3CmxCell%20id%3D%221%22%20parent%3D%220%22%2F%3E%3CmxCell%20id%3D%222%22%20value%3D%22%22%20style%3D%22edgeStyle%3DorthogonalEdgeStyle%3Brounded%3D0%3BorthogonalLoop%3D1%3BjettySize%3Dauto%3Bhtml%3D1%3BfontSize%3D8%3BentryX%3D0.5%3BentryY%3D0%3BentryDx%3D0%3BentryDy%3D0%3B%22%20edge%3D%221%22%20target%3D%223%22%20parent%3D%221%22%3E%3CmxGeometry%20relative%3D%221%22%20as%3D%22geometry%22%3E%3CmxPoint%20x%3D%22720%22%20y%3D%22320.0000000000001%22%20as%3D%22sourcePoint%22%2F%3E%3CmxPoint%20x%3D%22830%22%20y%3D%22510%22%20as%3D%22targetPoint%22%2F%3E%3C%2FmxGeometry%3E%3C%2FmxCell%3E%3CmxCell%20id%3D%223%22%20value%3D%22Community%20Lead%20%26lt%3Bbr%26gt%3B%26amp%3Bamp%3B%20Co-Leads%22%20style%3D%22rounded%3D1%3BwhiteSpace%3Dwrap%3Bhtml%3D1%3Bcontainer%3D1%3BarcSize%3D12%3BverticalAlign%3Dtop%3B%22%20vertex%3D%221%22%20parent%3D%221%22%3E%3CmxGeometry%20x%3D%22540%22%20y%3D%22520%22%20width%3D%22170%22%20height%3D%22160%22%20as%3D%22geometry%22%3E%3CmxRectangle%20x%3D%22720%22%20y%3D%22240%22%20width%3D%22160%22%20height%3D%2240%22%20as%3D%22alternateBounds%22%2F%3E%3C%2FmxGeometry%3E%3C%2FmxCell%3E%3CmxCell%20id%3D%224%22%20value%3D%22Duties%20of%20the%20Role%26lt%3Bbr%26gt%3B%26lt%3Bul%26gt%3B%26lt%3Bli%20style%3D%26quot%3Bfont-size%3A%208px%26quot%3B%26gt%3B%26lt%3Bspan%26gt%3BPlan%20Future%20Community%20Goals%20to%20achieve%26lt%3B%2Fspan%26gt%3B%26lt%3B%2Fli%26gt%3B%26lt%3Bli%20style%3D%26quot%3Bfont-size%3A%208px%26quot%3B%26gt%3B%26lt%3Bspan%26gt%3BCommunity%20Decision%20Making%26lt%3Bbr%26gt%3B%26lt%3B%2Fspan%26gt%3B%26lt%3B%2Fli%26gt%3B%26lt%3Bli%20style%3D%26quot%3Bfont-size%3A%208px%26quot%3B%26gt%3B%26lt%3Bspan%26gt%3BEnsure%20Community%20Ideology%26amp%3Bnbsp%3Bis%20followed%26lt%3Bbr%26gt%3B%26lt%3B%2Fspan%26gt%3B%26lt%3B%2Fli%26gt%3B%26lt%3Bli%20style%3D%26quot%3Bfont-size%3A%208px%26quot%3B%26gt%3B%26lt%3Bspan%26gt%3BAddress%20Issues%20in%20the%20Community%26lt%3Bbr%26gt%3B%26lt%3B%2Fspan%26gt%3B%26lt%3Bbr%26gt%3B%26lt%3Bbr%26gt%3B%26lt%3B%2Fli%26gt%3B%26lt%3B%2Ful%26gt%3B%22%20style%3D%22rounded%3D0%3BwhiteSpace%3Dwrap%3Bhtml%3D1%3BverticalAlign%3Dtop%3Balign%3Dleft%3B%22%20vertex%3D%221%22%20parent%3D%223%22%3E%3CmxGeometry%20y%3D%2241.45%22%20width%3D%22170%22%20height%3D%2298.55%22%20as%3D%22geometry%22%2F%3E%3C%2FmxCell%3E%3C%2Froot%3E%3C%2FmxGraphModel%3E&lt;/span&gt;&lt;br&gt;&lt;ul&gt;&lt;li style=&quot;font-size: 8px&quot;&gt;Select Social Media Team Co-Lead &amp;amp; Team Members&lt;/li&gt;&lt;li style=&quot;font-size: 8px&quot;&gt;Handle social account credentials&lt;/li&gt;&lt;li style=&quot;font-size: 8px&quot;&gt;Work with the team &amp;amp; provide Guidance&lt;/li&gt;&lt;/ul&gt;" style="rounded=0;whiteSpace=wrap;html=1;verticalAlign=top;align=left;" parent="y_zakcnJnjhkNf_73qmC-169" vertex="1">
          <mxGeometry y="32.50593607305936" width="240" height="86.22739726027396" as="geometry" />
        </mxCell>
        <mxCell id="y_zakcnJnjhkNf_73qmC-171" value="Duties of the Lead &amp;amp; the Team&lt;br&gt;&lt;div&gt;&lt;ul&gt;&lt;li style=&quot;font-size: 8px&quot;&gt;Moderate discord server. Handle channel permissions&lt;/li&gt;&lt;li style=&quot;font-size: 8px&quot;&gt;Manage Discord Bots e.g. Manage twitter-YouTube bot integration with social-updates channel.&lt;/li&gt;&lt;li style=&quot;font-size: 8px&quot;&gt;Post poster &amp;amp; content received from Event Management in Social handles&lt;/li&gt;&lt;li style=&quot;font-size: 8px&quot;&gt;Manage Social handles, e.g. replying to comments&lt;/li&gt;&lt;/ul&gt;&lt;/div&gt;" style="rounded=0;whiteSpace=wrap;html=1;verticalAlign=top;align=left;horizontal=1;" parent="y_zakcnJnjhkNf_73qmC-169" vertex="1">
          <mxGeometry y="118.73333333333333" width="240" height="118.70958904109588" as="geometry" />
        </mxCell>
        <mxCell id="y_zakcnJnjhkNf_73qmC-181" value="Domain Teams" style="rounded=1;whiteSpace=wrap;html=1;container=1;arcSize=7;verticalAlign=top;" parent="1" vertex="1">
          <mxGeometry x="355" y="840" width="280" height="410" as="geometry">
            <mxRectangle x="320" y="520" width="280" height="30" as="alternateBounds" />
          </mxGeometry>
        </mxCell>
        <mxCell id="y_zakcnJnjhkNf_73qmC-182" value="Duties of the Leads&lt;span style=&quot;color: rgba(0 , 0 , 0 , 0) ; font-family: monospace ; font-size: 0px&quot;&gt;%3CmxGraphModel%3E%3Croot%3E%3CmxCell%20id%3D%220%22%2F%3E%3CmxCell%20id%3D%221%22%20parent%3D%220%22%2F%3E%3CmxCell%20id%3D%222%22%20value%3D%22%22%20style%3D%22edgeStyle%3DorthogonalEdgeStyle%3Brounded%3D0%3BorthogonalLoop%3D1%3BjettySize%3Dauto%3Bhtml%3D1%3BfontSize%3D8%3BentryX%3D0.5%3BentryY%3D0%3BentryDx%3D0%3BentryDy%3D0%3B%22%20edge%3D%221%22%20target%3D%223%22%20parent%3D%221%22%3E%3CmxGeometry%20relative%3D%221%22%20as%3D%22geometry%22%3E%3CmxPoint%20x%3D%22720%22%20y%3D%22320.0000000000001%22%20as%3D%22sourcePoint%22%2F%3E%3CmxPoint%20x%3D%22830%22%20y%3D%22510%22%20as%3D%22targetPoint%22%2F%3E%3C%2FmxGeometry%3E%3C%2FmxCell%3E%3CmxCell%20id%3D%223%22%20value%3D%22Community%20Lead%20%26lt%3Bbr%26gt%3B%26amp%3Bamp%3B%20Co-Leads%22%20style%3D%22rounded%3D1%3BwhiteSpace%3Dwrap%3Bhtml%3D1%3Bcontainer%3D1%3BarcSize%3D12%3BverticalAlign%3Dtop%3B%22%20vertex%3D%221%22%20parent%3D%221%22%3E%3CmxGeometry%20x%3D%22540%22%20y%3D%22520%22%20width%3D%22170%22%20height%3D%22160%22%20as%3D%22geometry%22%3E%3CmxRectangle%20x%3D%22720%22%20y%3D%22240%22%20width%3D%22160%22%20height%3D%2240%22%20as%3D%22alternateBounds%22%2F%3E%3C%2FmxGeometry%3E%3C%2FmxCell%3E%3CmxCell%20id%3D%224%22%20value%3D%22Duties%20of%20the%20Role%26lt%3Bbr%26gt%3B%26lt%3Bul%26gt%3B%26lt%3Bli%20style%3D%26quot%3Bfont-size%3A%208px%26quot%3B%26gt%3B%26lt%3Bspan%26gt%3BPlan%20Future%20Community%20Goals%20to%20achieve%26lt%3B%2Fspan%26gt%3B%26lt%3B%2Fli%26gt%3B%26lt%3Bli%20style%3D%26quot%3Bfont-size%3A%208px%26quot%3B%26gt%3B%26lt%3Bspan%26gt%3BCommunity%20Decision%20Making%26lt%3Bbr%26gt%3B%26lt%3B%2Fspan%26gt%3B%26lt%3B%2Fli%26gt%3B%26lt%3Bli%20style%3D%26quot%3Bfont-size%3A%208px%26quot%3B%26gt%3B%26lt%3Bspan%26gt%3BEnsure%20Community%20Ideology%26amp%3Bnbsp%3Bis%20followed%26lt%3Bbr%26gt%3B%26lt%3B%2Fspan%26gt%3B%26lt%3B%2Fli%26gt%3B%26lt%3Bli%20style%3D%26quot%3Bfont-size%3A%208px%26quot%3B%26gt%3B%26lt%3Bspan%26gt%3BAddress%20Issues%20in%20the%20Community%26lt%3Bbr%26gt%3B%26lt%3B%2Fspan%26gt%3B%26lt%3Bbr%26gt%3B%26lt%3Bbr%26gt%3B%26lt%3B%2Fli%26gt%3B%26lt%3B%2Ful%26gt%3B%22%20style%3D%22rounded%3D0%3BwhiteSpace%3Dwrap%3Bhtml%3D1%3BverticalAlign%3Dtop%3Balign%3Dleft%3B%22%20vertex%3D%221%22%20parent%3D%223%22%3E%3CmxGeometry%20y%3D%2241.45%22%20width%3D%22170%22%20height%3D%2298.55%22%20as%3D%22geometry%22%2F%3E%3C%2FmxCell%3E%3C%2Froot%3E%3C%2FmxGraphModel%3E&lt;/span&gt;&lt;br&gt;&lt;ul&gt;&lt;li style=&quot;font-size: 8px&quot;&gt;Select your respective domain Co-Lead &amp;amp; Team Members&lt;/li&gt;&lt;li style=&quot;font-size: 8px&quot;&gt;Plan out &amp;amp; Organize your respective domain Events in the Community and brief the Event Management.&amp;nbsp;&lt;/li&gt;&lt;li style=&quot;font-size: 8px&quot;&gt;&lt;span&gt;Brief the Media team with event details required to create Posters &amp;amp; Content&lt;/span&gt;&lt;/li&gt;&lt;li style=&quot;font-size: 8px&quot;&gt;&lt;span&gt;Work with your respective domain&amp;nbsp;team &amp;amp; provide&amp;nbsp; them with Guidance&lt;/span&gt;&lt;br&gt;&lt;/li&gt;&lt;/ul&gt;" style="rounded=0;whiteSpace=wrap;html=1;verticalAlign=top;align=left;" parent="y_zakcnJnjhkNf_73qmC-181" vertex="1">
          <mxGeometry y="51.25" width="280" height="185.28846153846155" as="geometry" />
        </mxCell>
        <mxCell id="y_zakcnJnjhkNf_73qmC-183" value="Duties of the Leads and their respective Teams&lt;br&gt;&lt;div&gt;&lt;ul&gt;&lt;li style=&quot;font-size: 8px&quot;&gt;&lt;span&gt;Monitor the Learning event&#39;s task &amp;amp; assignment progresses&lt;/span&gt;&lt;br&gt;&lt;/li&gt;&lt;li style=&quot;font-size: 8px&quot;&gt;Help with doubt clearing.&lt;/li&gt;&lt;li style=&quot;font-size: 8px&quot;&gt;&lt;span&gt;Collaborate in Community LEARN-BY-DOING Projects&lt;/span&gt;&lt;br&gt;&lt;/li&gt;&lt;li style=&quot;font-size: 8px&quot;&gt;&lt;span&gt;Spread awareness about the opportunities.&lt;/span&gt;&lt;/li&gt;&lt;li style=&quot;font-size: 8px&quot;&gt;Take Community Projects in Open Source events.&lt;/li&gt;&lt;li style=&quot;font-size: 8px&quot;&gt;Encourage members to participate in outside Events like hackathons, open source events, competitions etc&lt;/li&gt;&lt;/ul&gt;&lt;/div&gt;" style="rounded=0;whiteSpace=wrap;html=1;verticalAlign=top;align=left;horizontal=1;" parent="y_zakcnJnjhkNf_73qmC-181" vertex="1">
          <mxGeometry y="211.21212121212122" width="280" height="161.51515151515153" as="geometry" />
        </mxCell>
        <mxCell id="NS-wZ5UPYBN-ugwvkPEJ-5" value="Opensource" style="rounded=1;whiteSpace=wrap;html=1;" vertex="1" parent="1">
          <mxGeometry x="180" y="855" width="100" height="30" as="geometry" />
        </mxCell>
        <mxCell id="NS-wZ5UPYBN-ugwvkPEJ-7" value="App Dev" style="rounded=1;whiteSpace=wrap;html=1;" vertex="1" parent="1">
          <mxGeometry x="180" y="935" width="100" height="30" as="geometry" />
        </mxCell>
        <mxCell id="NS-wZ5UPYBN-ugwvkPEJ-9" value="Web Dev" style="rounded=1;whiteSpace=wrap;html=1;" vertex="1" parent="1">
          <mxGeometry x="180" y="895" width="100" height="30" as="geometry" />
        </mxCell>
        <mxCell id="NS-wZ5UPYBN-ugwvkPEJ-11" value="AI / ML" style="rounded=1;whiteSpace=wrap;html=1;" vertex="1" parent="1">
          <mxGeometry x="180" y="1015" width="100" height="30" as="geometry" />
        </mxCell>
        <mxCell id="NS-wZ5UPYBN-ugwvkPEJ-13" value="Cyber Security" style="rounded=1;whiteSpace=wrap;html=1;" vertex="1" parent="1">
          <mxGeometry x="180" y="975" width="100" height="30" as="geometry" />
        </mxCell>
        <mxCell id="NS-wZ5UPYBN-ugwvkPEJ-15" value="UI/UX" style="rounded=1;whiteSpace=wrap;html=1;" vertex="1" parent="1">
          <mxGeometry x="180" y="1095" width="100" height="30" as="geometry" />
        </mxCell>
        <mxCell id="NS-wZ5UPYBN-ugwvkPEJ-17" value="CP" style="rounded=1;whiteSpace=wrap;html=1;" vertex="1" parent="1">
          <mxGeometry x="180" y="1055" width="100" height="30" as="geometry" />
        </mxCell>
        <mxCell id="NS-wZ5UPYBN-ugwvkPEJ-19" value="Game Dev" style="rounded=1;whiteSpace=wrap;html=1;" vertex="1" parent="1">
          <mxGeometry x="180" y="1175" width="100" height="30" as="geometry" />
        </mxCell>
        <mxCell id="NS-wZ5UPYBN-ugwvkPEJ-21" value="Cloud" style="rounded=1;whiteSpace=wrap;html=1;" vertex="1" parent="1">
          <mxGeometry x="180" y="1135" width="100" height="30" as="geometry" />
        </mxCell>
      </root>
    </mxGraphModel>
  </diagram>
</mxfile>
